<?xml version="1.0" encoding="UTF-8" ?>
<!DOCTYPE svg PUBLIC "-//W3C//DTD SVG 1.1//EN" "http://www.w3.org/Graphics/SVG/1.1/DTD/svg11.dtd">
<svg width="100pt" height="100pt" viewBox="0 0 999 1001" version="1.1" xmlns="http://www.w3.org/2000/svg">
<path fill="#ffffff" d=" M 0.00 0.00 L 999.00 0.00 L 999.00 1001.00 L 0.00 1001.00 L 0.00 0.00 Z" />
<path fill="#283242" d=" M 476.45 170.68 C 489.90 169.02 503.48 169.22 517.00 169.55 C 554.73 171.89 591.85 183.93 623.66 204.37 C 657.05 225.64 684.65 255.89 702.72 291.12 C 718.79 322.16 727.29 357.07 727.49 392.00 C 727.84 403.95 725.63 415.79 723.10 427.41 C 717.55 450.10 708.73 471.83 698.71 492.88 C 680.13 531.53 657.47 568.05 633.49 603.53 C 596.65 657.55 556.41 709.22 513.91 758.89 C 511.26 762.21 507.56 765.30 503.01 764.79 C 498.77 765.23 495.16 762.54 492.67 759.38 C 443.50 701.81 397.08 641.75 355.90 578.17 C 332.55 541.62 310.64 503.86 294.63 463.45 C 284.40 437.04 276.42 408.77 279.10 380.18 C 280.83 349.61 289.00 319.41 302.93 292.15 C 330.43 237.67 381.01 195.31 439.67 178.30 C 451.69 174.73 464.02 172.25 476.45 170.68 Z" />
<path fill="#1c74be" d=" M 456.41 198.44 C 466.74 195.78 477.34 194.36 487.95 193.49 C 502.62 192.96 517.43 192.65 531.96 195.09 C 567.01 200.01 600.58 214.68 628.16 236.83 C 655.53 258.58 676.98 287.65 689.83 320.15 C 700.23 346.88 705.32 375.86 703.23 404.53 C 701.26 419.96 696.91 435.00 691.50 449.56 C 678.93 483.05 661.54 514.48 642.98 544.98 C 623.04 577.52 601.25 608.89 578.57 639.57 C 557.76 667.59 536.23 695.08 513.92 721.92 C 510.35 726.14 507.04 730.60 503.04 734.44 C 491.83 722.08 481.63 708.83 471.06 695.92 C 447.25 666.19 424.25 635.80 402.43 604.59 C 379.58 571.84 357.86 538.22 339.09 502.95 C 330.43 486.49 322.32 469.70 315.71 452.29 C 309.36 435.47 304.02 418.00 302.69 399.99 C 301.25 365.55 309.39 330.85 325.41 300.38 C 351.88 249.80 400.75 211.42 456.41 198.44 Z" />
<path fill="#283242" d=" M 492.37 230.24 C 529.01 227.25 566.42 238.38 596.13 259.89 C 620.56 277.48 639.80 302.15 650.89 330.13 C 661.83 357.38 664.81 387.70 659.61 416.58 C 654.70 445.54 641.00 472.71 621.67 494.73 C 599.62 519.09 570.09 536.80 537.92 543.87 C 502.77 551.52 464.94 547.48 432.70 531.27 C 387.76 509.29 354.44 465.02 346.37 415.58 C 343.98 403.18 344.00 390.51 344.42 377.95 C 346.55 345.25 359.24 313.36 380.10 288.09 C 407.45 254.49 449.01 232.66 492.37 230.24 Z" />
<path fill="#c5d0e4" d=" M 483.43 254.76 C 518.06 249.65 554.52 258.54 582.72 279.32 C 613.18 301.33 633.83 336.53 637.66 373.96 C 641.78 409.28 630.96 445.97 608.54 473.54 C 585.60 502.14 550.69 520.98 514.05 523.60 C 493.53 525.49 472.60 522.20 453.43 514.65 C 421.64 502.19 394.95 477.20 380.56 446.22 C 363.85 411.42 363.40 369.45 379.15 334.23 C 390.47 308.51 410.04 286.56 434.19 272.23 C 449.29 263.34 466.09 257.30 483.43 254.76 Z" />
<path fill="#283242" d=" M 423.45 581.56 C 428.36 579.58 434.14 581.64 437.19 585.84 C 446.38 597.66 455.34 609.67 464.57 621.46 C 466.92 624.53 469.47 627.93 469.36 632.00 C 469.47 638.42 463.49 644.32 456.99 643.69 C 452.51 643.97 449.04 640.78 446.54 637.46 C 437.55 625.77 428.66 614.01 419.62 602.37 C 417.57 599.63 415.49 596.56 415.54 593.00 C 415.34 587.99 418.76 583.21 423.45 581.56 Z" />
<path fill="#283242" d=" M 484.33 661.24 C 488.60 659.59 493.76 660.73 496.90 664.08 C 500.16 667.55 502.77 671.55 505.77 675.24 C 508.42 678.55 511.04 682.53 510.29 687.00 C 509.62 693.68 502.61 698.77 496.04 697.24 C 490.72 696.17 487.77 691.22 484.68 687.27 C 482.02 683.54 478.58 680.22 477.01 675.83 C 475.13 670.01 478.57 663.23 484.33 661.24 Z" />
</svg>
